<svg version="1.0" xmlns="http://www.w3.org/2000/svg"
 width="1280.000000pt" height="438.000000pt" viewBox="0 0 1280.000000 438.000000"
 preserveAspectRatio="xMidYMid meet">

<g transform="translate(0.000000,438.000000) scale(0.100000,-0.100000)"
fill="#000000" stroke="none">
<path d="M6274 4204 c-31 -15 -36 -22 -73 -104 -35 -79 -53 -93 -209 -156
-122 -50 -174 -55 -247 -24 -96 41 -141 24 -257 -97 -91 -94 -98 -124 -54
-225 28 -66 21 -127 -29 -244 -25 -57 -45 -108 -45 -112 0 -23 -79 -80 -162
-117 -56 -25 -68 -61 -68 -208 0 -153 13 -180 100 -211 79 -29 118 -74 170
-196 38 -91 44 -115 44 -175 0 -47 -7 -87 -21 -124 -29 -75 -20 -99 79 -199
123 -124 135 -128 267 -81 62 22 66 22 120 7 83 -24 211 -78 250 -106 22 -16
45 -49 66 -97 48 -104 51 -105 228 -105 l149 0 26 29 c15 15 35 50 44 77 9 27
32 64 50 81 32 31 192 104 272 124 44 11 117 -1 166 -26 39 -20 79 -19 112 3
45 29 188 185 195 211 6 25 0 54 -33 145 -21 60 -14 99 42 234 50 118 82 158
153 189 31 14 68 36 84 51 l27 26 0 146 c0 116 -3 150 -16 168 -8 12 -49 38
-89 57 -45 22 -82 47 -96 66 -28 39 -87 178 -108 252 -16 57 -15 58 13 140 21
59 27 92 22 112 -7 29 -162 197 -200 217 -30 16 -91 11 -135 -11 -68 -35 -124
-28 -267 31 -140 57 -164 78 -199 170 -34 86 -61 98 -214 98 -93 0 -134 -5
-157 -16z m361 -627 c184 -60 328 -187 411 -361 47 -99 65 -181 65 -298 0
-199 -76 -368 -226 -506 -75 -68 -216 -144 -303 -161 -74 -15 -257 -13 -317 3
-303 83 -505 329 -522 636 -6 123 13 215 71 334 92 190 263 325 471 372 93 21
252 12 350 -19z"/>
<path d="M6265 3161 c-33 -9 -87 -31 -120 -49 -64 -34 -145 -102 -145 -121 0
-28 32 -20 77 17 72 61 179 108 278 123 73 10 96 10 165 -4 94 -18 193 -62
254 -112 47 -38 76 -45 76 -17 -1 39 -186 150 -288 171 -78 16 -227 13 -297
-8z"/>
<path d="M6289 2937 c-70 -29 -129 -74 -129 -98 0 -28 24 -23 78 16 120 86
284 80 402 -14 35 -28 60 -31 60 -6 0 22 -80 84 -137 105 -77 29 -199 27 -274
-3z"/>
<path d="M6353 2720 c-20 -12 -33 -28 -33 -40 0 -24 13 -25 45 -4 31 21 102
20 124 0 24 -22 51 -20 51 3 0 52 -125 79 -187 41z"/>
<path d="M3758 1250 c-1 -5 -2 -269 0 -585 l2 -575 360 0 361 0 -3 133 -3 132
-187 3 -188 2 0 95 0 95 160 0 160 0 0 130 0 130 -160 0 -160 0 0 90 0 90 190
0 191 0 -3 133 -3 132 -357 3 c-233 1 -357 -1 -360 -8z"/>
<path d="M5068 956 c-51 -18 -84 -41 -104 -71 -24 -37 -34 -31 -34 20 0 56 -2
57 -180 53 l-135 -3 -3 -433 -2 -432 162 2 163 3 3 298 2 298 25 9 c16 6 34 6
50 0 l25 -10 0 -300 0 -300 160 0 160 0 6 26 c4 14 4 173 1 352 -5 364 -12
409 -67 456 -54 45 -156 59 -232 32z"/>
<path d="M6797 956 c-42 -16 -62 -29 -95 -68 -13 -16 -28 -28 -32 -28 -5 0
-10 21 -12 48 l-3 47 -152 3 c-100 2 -153 -1 -153 -8 0 -5 0 -200 0 -432 l0
-423 160 -3 160 -2 0 300 0 300 25 10 c26 10 55 4 67 -14 4 -6 8 -143 8 -303
l0 -293 159 0 160 0 3 295 c2 179 7 298 13 303 19 19 51 22 71 8 18 -14 19
-31 22 -310 l3 -296 160 0 161 0 -4 358 c-5 395 -9 426 -69 477 -85 71 -266
52 -331 -35 -12 -17 -25 -30 -29 -30 -4 0 -16 15 -27 34 -11 19 -35 42 -52 51
-44 23 -165 29 -213 11z"/>
<path d="M7850 959 c-112 -19 -174 -69 -202 -163 -18 -59 -17 -474 0 -543 19
-71 68 -127 135 -150 43 -15 84 -18 237 -18 172 0 189 2 237 23 99 45 120 89
132 277 11 161 -2 388 -24 442 -32 76 -91 115 -196 133 -76 12 -242 11 -319
-1z m211 -245 c9 -11 13 -61 13 -190 0 -148 -3 -177 -17 -191 -19 -19 -72 -22
-90 -4 -18 18 -17 362 2 384 17 21 74 22 92 1z"/>
<path d="M8953 954 c-25 -9 -57 -33 -78 -57 -19 -22 -36 -39 -38 -36 -2 2 -8
24 -13 49 l-9 45 -150 0 -150 0 -3 -433 -2 -432 159 0 160 0 3 299 c2 165 7
303 11 307 13 14 78 9 88 -7 5 -7 9 -146 9 -306 l0 -293 161 0 160 0 -3 368
c-3 349 -4 369 -24 413 -30 65 -77 91 -168 95 -47 3 -85 -2 -113 -12z"/>
<path d="M5440 956 c0 -1 43 -196 95 -431 52 -235 95 -429 95 -431 0 -2 101
-4 223 -4 l224 0 16 73 c9 39 52 231 96 426 44 195 78 358 75 362 -7 11 -301
12 -308 1 -3 -5 -23 -132 -46 -282 -22 -151 -43 -276 -45 -279 -12 -11 -13 -5
-81 419 -8 52 -17 107 -20 123 l-6 27 -159 0 c-87 0 -159 -2 -159 -4z"/>
</g>
</svg>
